<?xml version="1.0" standalone="no"?><!DOCTYPE svg PUBLIC "-//W3C//DTD SVG 1.1//EN" "http://www.w3.org/Graphics/SVG/1.1/DTD/svg11.dtd"><svg t="1513411144862" class="icon" style="" viewBox="0 0 1024 1024" version="1.1" xmlns="http://www.w3.org/2000/svg" p-id="6099" xmlns:xlink="http://www.w3.org/1999/xlink" width="32" height="32"><defs><style type="text/css"></style></defs><path d="M511.325271 3.405395C231.114419 3.405395 3.968992 230.55876 3.968992 510.761674c0 280.210853 227.153364 507.356279 507.356279 507.356279 280.210853 0 507.364217-227.153364 507.364217-507.356279 0-280.210853-227.153364-507.356279-507.364217-507.356279z m242.76738 740.51076H627.656434c-18.408186 0-50.787225-0.373085-97.168868-1.111318-34.97476-0.365147-63.495938-3.675287-85.571473-9.930418-20.988031-6.628217-40.309085-20.067225-57.979039-40.301148-6.993364-9.200124-13.994667-13.812093-20.980093-13.812093-12.891287 0-34.601674 25.40155-65.147039 76.196713l-29.815069-27.052651c29.441984-46.373705 55.391256-74.537674 77.847814-84.476031V475.588465H269.891473v-36.435349h115.942201v206.490791c4.048372 2.944992 8.461891 7.175938 13.256435 12.700775 13.605705 16.193488 27.782946 27.790884 42.507907 34.77631 16.566574 7.731597 41.03938 12.145116 73.426356 13.256434 38.284899 0.730295 73.982016 1.10338 107.115163 1.10338 16.923783 0 43.420775-0.373085 79.506853-1.111318 30.172279-0.738233 50.795163-1.468527 61.836899-2.206759l-9.390636 39.753426zM306.882481 256.396899c38.650047 29.81507 69.933643 58.344186 93.858728 85.579411l-28.71169 28.156031c-21.718326-26.496992-52.446264-55.764341-92.19969-87.78617L306.882481 256.396899zM750.218915 634.594233l-28.156031 28.711689c-41.595039-50.048992-99.939225-103.797085-175.016682-161.220465l25.949271-25.393612c71.029085 53.375008 130.103566 106.011783 177.223442 157.902388zM473.064186 269.653333h252.316775v180.54152H511.166512c-4.421457 81.713612-27.425736 151.464682-69.020776 209.245271l-29.25941-26.496992c39.753426-52.628837 59.812713-120.91138 60.17786-204.831752V269.653333z m38.657985 36.991008h176.120062v107.107225H511.714233V306.644341z" p-id="6100"></path></svg>